# xmcd
#
# Track frame offsets:
#	150
#	12750
#	31207
#	42235
#	54010
#	66835
#	78460
#	93462
#	108162
#	121062
#
# Disc length: 1766 seconds
#
# Revision: 1
# Processed by: cddbd v1.4PL0 Copyright (c) Steve Scherf et al.
# Submitted via: audiograbber 1.81.02
#
DISCID=6d06e40a
DTITLE=Bravo Norteño - Cabalgando
DYEAR=2000
DGENRE=Latin
TTITLE0=Me Acostumbre A Ti
TTITLE1=No Quiero Perderte
TTITLE2=Ay Que Bonito
TTITLE3=Chiquilla Hermosa
TTITLE4=Ya Destrozaste Mi Corazon
TTITLE5=Con Acordeon y Bajo Sexto
TTITLE6=El Hijo Del Traficante
TTITLE7=Por Que Te Amo
TTITLE8=Dime
TTITLE9=Peor Que Las Gallinas
EXTD=
EXTT0=
EXTT1=
EXTT2=
EXTT3=
EXTT4=
EXTT5=
EXTT6=
EXTT7=
EXTT8=
EXTT9=
PLAYORDER=
